<svg xmlns="http://www.w3.org/2000/svg" version="1.0" viewBox="0 0 512 512">
  <path d="m232 25-12 33-10 32-13 4-12 5-27-17-30-18c-3-2-4-2-24 16L89 94c0 3 0 6 12 34l12 31-13 23a1484 1484 0 0 1-68 11c-3 2-10 43-8 47 0 2 6 5 30 18l30 15 2 14 3 13-5 5c-27 29-41 45-41 47l9 17 9 16-14 11c-14 13-19 19-22 29-4 12-4 24 2 36s14 20 27 25c9 3 23 3 32 0 12-4 16-8 43-39l26-29-1 23v25a211 211 0 0 0 44 17c3 0 4-1 26-30l19-24h27l19 25c22 29 22 29 26 29 3 0 40-14 43-16 2-2 2-4 0-46l-1-24 3-2 11-9 7-6 32 7c27 6 33 7 35 6 4-1 24-37 24-41 0-2-4-7-22-28l-23-25 2-14 3-12 29-15 30-17c2-3 2-3-1-24l-5-23c-1-3-4-3-39-8l-31-4-6-12-7-11 12-31 13-32c0-3-1-4-9-11-25-22-26-22-29-22l-30 18-28 18-12-4-13-6a1189 1189 0 0 1-23-65l-24-1c-19 0-22 0-24 2zm49 43 12 32c2 3 35 14 37 13l29-17 27-17 11 9 12 10-4 9c-19 45-21 52-20 55 4 8 18 32 20 32a1084 1084 0 0 0 64 10l6 29-29 15-29 17-5 20-2 19 20 23 21 23 3 3-7 12-8 13-31-6-33-6a317 317 0 0 0-31 24v34l1 34a168 168 0 0 1-29 9 1809 1809 0 0 1-40-51h-39l-41 50c0 2-3 1-15-3l-14-5v-7l2-29v-21l15-17 15-17 9 3c16 6 27 8 44 9a127 127 0 0 0 130-145 127 127 0 0 0-130-107c-26 1-45 7-67 22-27 18-47 50-53 83-2 10-2 32 0 42s7 25 10 32l2 7a2778 2778 0 0 0-72 62l-13-21a1190 1190 0 0 1 44-52l-7-37-29-16-29-16a135 135 0 0 1 7-29l32-5c24-3 31-4 32-6 3-3 19-31 19-33l-12-32-12-30 21-18c2-1 5 1 30 17l29 17a490 490 0 0 0 37-16l11-32 9-29h15l15 1 10 30zm4 77a112 112 0 0 1 39 198c-10 7-27 15-39 19-10 2-12 2-28 2-17 0-19 0-28-2l-15-5-5-2 7-9c5-6 8-8 9-8 23 8 41 8 62 2 42-14 69-58 62-102-1-7-4-10-8-10-3 0-7 3-34 31l-31 30-19-6-21-7-7-21-6-19 31-31c27-27 31-32 31-34 0-6-2-7-13-9-27-4-56 5-76 24a89 89 0 0 0-29 68c0 11 1 19 5 32 1 1 0 3-7 9l-9 7-3-6a112 112 0 0 1 131-151zm-49 57c-15 15-27 28-27 30-1 2 15 52 17 54s50 18 54 18l29-27 27-28v10a78 78 0 0 1-109 65c-4-2-6-2-8-1l-59 67c-70 81-67 78-75 82-13 5-27 3-38-6l-7-11c-3-6-3-7-3-15 0-7 0-8 3-15 4-7 5-8 119-106l30-28-2-8a78 78 0 0 1 70-108h7l-28 27z"/>
  <path d="M64 420c-7 3-10 8-11 16 0 10 3 16 12 20 4 2 12 3 16 1 5-2 11-9 12-14 4-13-7-26-21-26l-8 3zm14 14c2 2 2 3 2 5-2 8-13 6-13-2l2-4c3-3 6-2 9 1z"/>
</svg>
