<?xml version="1.0" standalone="no"?>
<!DOCTYPE svg PUBLIC "-//W3C//DTD SVG 20010904//EN"
 "http://www.w3.org/TR/2001/REC-SVG-20010904/DTD/svg10.dtd">
<svg version="1.0" xmlns="http://www.w3.org/2000/svg"
 width="512.000000pt" height="512.000000pt" viewBox="0 0 512.000000 512.000000"
 preserveAspectRatio="xMidYMid meet">

<g transform="translate(0.000000,512.000000) scale(0.100000,-0.100000)"
fill="#000000" stroke="none">
<path d="M2321 4873 c-15 -13 -50 -109 -123 -335 l-101 -317 -124 -46 -125
-45 -271 172 c-150 94 -284 176 -299 182 -33 12 -35 11 -240 -162 -82 -68
-149 -132 -150 -141 -3 -35 6 -61 122 -344 66 -161 120 -298 120 -304 0 -17
-122 -225 -134 -229 -6 -2 -157 -24 -336 -49 -256 -35 -328 -48 -341 -62 -25
-25 -97 -432 -83 -469 7 -20 68 -56 304 -181 162 -85 296 -157 298 -158 1 -1
13 -61 26 -132 l23 -129 -46 -50 c-269 -293 -411 -457 -411 -475 0 -11 40 -89
89 -174 l89 -154 -133 -115 c-141 -122 -193 -187 -225 -282 -43 -125 -35 -246
24 -369 58 -120 141 -195 271 -245 85 -33 224 -34 316 -2 115 39 157 78 428
390 139 161 254 292 256 290 2 -2 -1 -106 -7 -231 -8 -193 -7 -232 5 -250 10
-16 72 -43 214 -95 110 -39 211 -72 225 -72 32 0 41 11 262 298 l188 242 131
0 132 0 190 -246 c226 -293 227 -294 260 -294 38 0 407 138 430 160 22 23 22
42 4 460 l-10 235 33 28 c18 16 65 55 103 86 l70 58 327 -70 c266 -58 332 -69
351 -60 33 15 237 369 237 411 0 25 -38 71 -225 278 -124 136 -225 253 -224
258 0 6 10 65 22 131 l22 120 290 152 c166 87 298 162 309 176 18 24 17 28
-18 233 -21 115 -41 219 -46 231 -13 31 -42 37 -390 84 -168 23 -306 42 -306
43 -1 0 -31 52 -68 114 l-65 113 124 305 c69 168 125 315 125 327 0 30 -5 35
-85 103 -258 220 -267 226 -294 221 -15 -3 -152 -85 -305 -181 l-278 -176
-121 44 c-67 24 -125 50 -129 57 -4 8 -53 155 -108 326 -74 230 -106 315 -120
323 -11 6 -108 10 -238 10 -195 0 -222 -2 -241 -17z m490 -432 c55 -170 106
-312 116 -322 27 -25 351 -141 375 -133 11 3 140 82 288 176 l269 169 115 -96
115 -96 -39 -92 c-186 -448 -212 -520 -200 -546 35 -78 184 -321 200 -326 10
-3 158 -25 329 -49 171 -23 313 -44 315 -47 8 -8 56 -281 51 -289 -3 -5 -131
-74 -285 -155 -161 -84 -287 -156 -294 -168 -8 -12 -27 -99 -43 -194 -23 -134
-27 -177 -19 -196 6 -14 92 -115 192 -224 99 -109 194 -214 211 -233 l30 -35
-67 -119 c-38 -65 -72 -122 -77 -127 -6 -6 -128 16 -313 56 -167 36 -315 65
-329 65 -19 0 -64 -32 -161 -113 -74 -63 -141 -121 -148 -130 -11 -13 -11 -73
-1 -341 7 -180 10 -329 6 -332 -3 -3 -65 -28 -139 -55 -103 -38 -135 -46 -144
-36 -6 7 -96 121 -199 255 -103 133 -195 247 -205 252 -26 14 -363 13 -392 -1
-17 -8 -277 -332 -404 -504 -9 -12 -31 -7 -153 37 l-143 52 6 70 c3 39 9 168
12 286 l7 215 144 167 c79 92 147 170 152 172 4 3 46 -11 94 -30 156 -63 264
-85 432 -91 282 -9 515 54 737 200 290 191 480 472 553 822 21 97 25 328 7
431 -80 477 -416 865 -870 1008 -142 44 -258 59 -427 53 -257 -10 -445 -71
-661 -215 -274 -184 -476 -497 -535 -832 -17 -96 -17 -324 0 -420 17 -97 66
-249 103 -324 17 -33 26 -61 20 -65 -5 -3 -168 -143 -361 -311 -194 -168 -356
-306 -361 -308 -6 -2 -130 201 -130 213 0 2 99 113 220 247 165 182 220 249
220 268 0 40 -57 346 -68 366 -6 11 -138 86 -294 168 -156 82 -285 150 -287
152 -2 2 7 67 20 145 20 121 26 143 44 150 11 4 157 26 325 49 235 32 309 45
322 58 29 30 188 312 188 335 0 12 -54 156 -121 320 -67 163 -120 299 -118
300 4 3 179 148 210 174 14 12 51 -8 295 -162 153 -96 284 -175 290 -175 12 0
232 79 322 115 26 11 48 28 56 44 7 14 55 158 106 319 l94 292 150 -2 150 -3
97 -304z m34 -766 c599 -158 958 -767 805 -1366 -62 -241 -213 -466 -415 -618
-95 -72 -269 -155 -390 -188 -91 -24 -117 -27 -280 -27 -163 0 -189 2 -275 26
-52 14 -119 36 -148 49 l-52 24 71 83 c50 58 77 82 88 78 229 -75 415 -80 616
-15 425 137 699 583 624 1017 -13 74 -35 102 -81 102 -28 0 -65 -33 -337 -305
l-306 -304 -197 62 c-108 34 -200 65 -203 69 -4 3 -35 96 -70 205 l-63 198
309 310 c268 269 309 314 309 340 0 54 -21 67 -133 85 -265 43 -561 -51 -761
-239 -193 -183 -288 -406 -287 -676 0 -113 14 -196 56 -321 6 -18 -7 -33 -76
-93 -45 -39 -85 -71 -89 -71 -5 0 -20 29 -34 65 -217 543 8 1153 522 1419 186
96 328 127 547 122 122 -4 169 -9 250 -31z m-482 -577 c-149 -150 -274 -282
-277 -294 -8 -27 149 -522 173 -547 18 -19 497 -177 536 -177 12 0 121 101
293 273 l274 272 -5 -90 c-19 -304 -228 -576 -519 -676 -190 -65 -370 -58
-567 20 -44 18 -59 20 -80 11 -14 -6 -280 -306 -591 -667 -702 -814 -673 -783
-752 -819 -124 -57 -272 -33 -377 61 -22 21 -55 67 -73 103 -29 59 -33 76 -33
148 0 73 4 88 35 150 38 74 48 83 1185 1064 162 140 298 264 301 276 3 11 -6
49 -20 85 -51 131 -68 251 -55 384 39 386 368 689 754 694 l70 1 -272 -272z"/>
<path d="M641 924 c-71 -36 -104 -86 -109 -168 -6 -92 32 -158 115 -200 39
-19 122 -21 166 -3 45 20 104 88 118 139 34 127 -71 258 -207 258 -16 0 -54
-12 -83 -26z m135 -140 c20 -19 24 -31 19 -52 -18 -78 -125 -66 -125 14 0 23
7 38 22 48 32 23 55 20 84 -10z"/>
</g>
</svg>
