<svg xmlns="http://www.w3.org/2000/svg" version="1.0" viewBox="0 0 225 225">
  <path d="M100 6c-17 4-32 20-35 37-1 6-1 6-4 6-5-2-11-2-13-1-5 3-5 6-4 18l1 12-6 5-10 13-4 7-8 1c-8 2-13 4-15 9-2 3-2 6-2 20 0 24 2 27 16 30l8 2 5 7c5 7 5 7 4 12-2 9 1 21 9 28 7 7 12 9 23 9 8 0 10-1 15-3l8-6c4-3 4-3 12-2l18-1 9-1 5 4c8 7 14 9 24 9 7-1 9-1 13-3 7-3 13-8 16-15s4-18 0-25l-2-5 3-5a66 66 0 0 0 5-59h6c21 0 35-23 24-41-3-6-7-9-10-7-2 1-2 5 0 7 11 12 2 32-14 32-8 0-10-1-19-11l-14-13-7-5 2-7c2-8 2-12 1-21a49 49 0 0 0-60-37zm25 9c11 3 22 15 25 25 5 16 0 33-12 42l-5 4H92l-4-3c-5-4-8-8-12-15-2-6-3-8-3-16s1-10 3-15l6-10c4-5 12-10 18-12s18-2 24 0zM62 58c2 1 3 2 3 5 1 6 6 16 10 19 3 3 3 4-2 4-3 1-4 1-4 4a417 417 0 0 0 85 5c5-3 3-9-2-9s-5-1-1-4l2-3 4 3c20 15 31 35 30 55-1 12-4 19-13 34-1 2-1 2 1 7 6 11 5 20-3 27-10 10-25 9-36-2-5-5-6-5-17-3l-19 1-12-1-4 4c-9 8-21 10-31 5s-14-15-10-26v-7a1280 1280 0 0 0-15-20l-9-1-9-3c-2-2-2-34 0-36l8-3c12-2 13-3 16-9l12-14 8-9v-9l-2-12v-4h4l6 2z"/>
  <path d="M107 25a27 27 0 1 0 33 30c2-18-15-33-33-30zm14 10c9 5 12 16 8 25-3 6-10 11-16 11-4 0-9-2-13-5-8-8-8-20 0-28l7-4h3c2-1 8 0 11 2zm-66 79c-2 3-3 4-3 8 0 11 12 16 19 8 8-7 2-19-8-19-3 0-5 1-8 3zm11 8c0 2-3 4-4 2-2-1 0-4 2-4l2 2z"/>
</svg>
