<svg xmlns="http://www.w3.org/2000/svg" version="1.0" viewBox="0 0 225 225">
  <path d="M165 21c-11 2-22 10-28 21-2 5-2 6-2 17l-1 12-13 12-13 13-23-22-23-23v-5l-1-6-30-18-8 6-6 7 7 12 8 14c1 2 3 3 6 3l7 1 24 24 23 23-13 12-13 13-11 1c-11 0-12 0-17 2-8 4-14 10-18 18-5 10-4 30 1 31 2 0 4-2 9-7 7-7 8-8 13-9l5-1 4 5 4 4-2 6c-1 5-2 7-9 12l-7 7c0 3 3 4 11 5 9 2 18 0 26-6 11-7 18-23 15-36l-1-5 12-11 11-11 3 4 3 4-2 3c-3 3-4 5-1 6l4-3 3-3 5 5c18 20 46 48 49 50 5 3 12 4 18 1 10-5 14-14 12-24-1-5-2-7-18-22-39-38-39-37-37-38 1-2 1-5-1-6l-3 1c-1 2-2 2-5-1l-3-3 11-12c11-10 11-11 14-10l11 1c7 0 10-1 15-4 14-7 21-22 19-37-1-6-3-11-5-11l-10 9c-9 8-10 9-13 9-4 0-5-1-9-4-3-3-4-5-4-8 0-4 1-4 10-13 7-7 10-10 9-11-1-3-13-5-22-4zm11 5h3l-8 8-8 8v6l-1 7 6 6 6 5h6l7-1 8-7 8-7c1 2 0 15-2 20-6 14-21 21-35 18-4-2-7-2-8-1l-37 37-36 36v11c0 11-1 12-4 18-4 7-8 11-16 14-5 2-16 3-17 1-1 0 1-3 4-5 4-4 5-5 8-13l2-8-6-7-7-6-7 1c-6 1-7 1-13 7l-6 6-1-8c1-9 3-16 10-22 6-6 13-8 23-8l10 1c1 1 8-6 39-36l37-37-1-3c-3-10 0-23 8-31 5-6 8-7 15-9 6-2 9-2 13-1zM45 36l12 7v11l23 22 23 23-4 4-3 4-24-23-23-23-6-1c-6-1-6-1-14-14l-5-10 4-4 4-4 13 8zm94 87 2 3-7 8-9 9c-2 2-2 2-5 0l-3-4c0-2 17-19 18-19l4 3zm34 33 27 27c2 3 1 11-1 14-4 7-13 10-20 7l-51-54c-1-1 1-4 8-11l10-9 27 26z"/>
  <path d="m112 113-25 26c1 4 5 2 29-22 24-23 26-26 22-28l-26 24zm32 36v3l39 36c5 0 2-4-16-21l-21-19-2 1z"/>
</svg>
