<svg xmlns="http://www.w3.org/2000/svg" xml:space="preserve" fill="green" fill-opacity=".7" viewBox="0 0 512 512"><path d="M421 196A133 133 0 0 0 316 90a21 21 0 0 0-8 41c37 7 65 36 73 72a21 21 0 0 0 40-7z"/><path d="M511 197A224 224 0 0 0 314 0a21 21 0 1 0-4 41c85 10 151 76 160 161a21 21 0 0 0 41-5zm-78 116h-1c-20-3-39-8-58-15-24-9-51-3-69 15h-1l-17 17c-42-27-78-63-105-106l17-17c18-18 24-45 15-69-7-19-12-39-15-59-5-33-33-57-66-57H66A66 66 0 0 0 1 94a468 468 0 0 0 423 418c36 0 65-30 65-66v-67c1-33-23-62-56-66zm15 66v67a24 24 0 0 1-27 25 426 426 0 0 1-313-195C72 220 49 156 42 90a24 24 0 0 1 24-26h68c12 0 22 9 24 21 3 23 9 45 17 67 3 9 1 19-6 26l-28 28c-7 7-8 17-3 25 33 60 83 109 142 143 8 5 19 3 25-3l29-29c6-7 16-9 25-5 22 8 45 13 68 17a24 24 0 0 1 21 25z"/></svg>