<svg xmlns="http://www.w3.org/2000/svg" viewBox="1 46 208 206"><g fill-rule="evenodd"><path d="m50 232 55-69 57 68-57-37zm55-69 91-39c-46 13-69 13-91 13-23-1-67-3-91-11l91 37z"/><path d="M6 123c20-29 70-64 97-72 33 10 84 47 101 70 0 35-20 95-36 118-34 11-98 9-124-1-21-28-38-87-38-115zm8 2c19-24 50-49 89-67 29 11 65 35 94 66-2 31-13 71-34 108-30 7-73 10-114 0-17-26-31-64-35-107z"/><path d="M99 87v8l-6-2c-3 0-9 5-9 10s5 9 9 9c5 0 6-1 8-2v7l-8 2c-5-1-16-4-16-16-1-11 9-16 15-16h7zm51 13c4 1 10 3 8 8s-7 4-11 2l3-10zm-8 24-7-3 10-29 12 4c11 5 9 13 7 16-2 5-10 7-19 3-3 5-3 9-3 9zm-9-34-2 8c-1-2-3-3-6-4s-9 2-10 7c-2 5 1 10 6 11 4 2 6 1 7 0l-2 7c-2 1-3 1-8-1-4-1-14-8-11-19s13-13 19-11l7 2zm-67 4 2 8c-2-2-4-2-7-1s-7 7-6 11c1 5 7 8 11 7s6-2 7-4l2 8-8 3c-4 1-16 0-19-11s5-18 11-20l7-1z"/></g></svg>