<svg xmlns="http://www.w3.org/2000/svg" width="48" height="85" version="1.0" viewBox="0 0 733 1280"><path d="M47 1C26 5 10 20 3 40c-3 9-3 26-1 34 4 10 8 17 15 24 8 8 16 12 27 15 7 2 12 2 323 2 310 0 315 0 322-2 20-5 35-19 42-39 2-8 2-25 0-33-4-9-8-17-14-24-7-6-13-10-23-14l-6-2-319-1L47 1zm45 132-8 38c-12 72-9 147 9 204 15 47 38 83 74 115 33 30 55 48 95 78 47 35 49 38 49 71 0 17-1 23-5 31-5 9-14 17-45 40-47 35-79 62-105 88-34 33-54 70-67 122a463 463 0 0 0 1 220l2 5h549l2-5c6-21 11-63 13-98 3-72-9-135-35-185-13-24-24-39-44-60-26-25-58-52-105-87-31-23-40-31-45-40-4-8-5-14-5-32 0-32 2-35 53-73 45-34 81-64 104-87 34-35 57-79 69-135a488 488 0 0 0-6-208l-1-3H367l-275 1zm534 28c4 20 7 48 8 75 4 89-16 161-57 213a1138 1138 0 0 1-120 103c-16 12-33 25-36 29-16 15-21 30-21 57 0 29 7 46 23 61l34 27c55 41 100 79 117 100 31 36 49 82 57 141a649 649 0 0 1-5 147l-1 10H109l-3-16c-9-52-10-106-3-153 8-51 27-95 56-129 17-21 62-59 117-100 15-11 31-23 34-27 17-16 24-35 23-66-2-36-8-45-57-81a1123 1123 0 0 1-120-103c-31-40-49-89-56-152a564 564 0 0 1 8-142l259-1h257l2 7z"/><path d="M382 210c-10 1-26 5-36 8-20 6-39 18-67 41-44 34-55 41-84 51-19 6-37 14-44 21-5 5-11 14-12 19l2 7c3 4 4 5 8 6 7 1 14 4 18 9 8 8 9 15 7 33-2 14-2 20-1 24a428 428 0 0 0 110 105c27 18 39 27 49 37 8 7 15 17 17 22l3 3 1 1a791 791 0 0 1-1 84c-4 38-46 106-101 166-23 25-45 45-77 72-20 17-33 49-37 92-1 13-1 61 1 71v4l218-1h217l5-4 10-11 5-7-2-14c-6-41-16-74-29-100-11-22-19-32-41-51l-52-42c-50-41-65-56-72-70a623 623 0 0 1-23-192c6-18 21-31 65-62a396 396 0 0 0 129-127c11-16 27-44 27-45l-11-2c-37-8-57-15-66-24-6-8-11-16-25-49-16-38-19-44-24-50-16-20-49-29-87-25zm49 716-6 1h-3l5-2c6-2 7-2 4 0zm0 6c-1 3-1 3-1 1 0-3 1-8 2-6l-1 5zM43 1167c-19 5-34 19-41 39-2 8-2 25 0 33 7 19 20 32 39 39l326 1c311 1 320 0 325-1 19-7 32-20 39-39 2-8 2-25 0-33a59 59 0 0 0-42-39c-7-2-12-2-323-2-307 0-316 0-323 2z"/></svg>